<?xml version="1.0" encoding="utf-8"?>
<!-- Generator: Adobe Illustrator 24.1.2, SVG Export Plug-In . SVG Version: 6.00 Build 0)  -->
<svg version="1.1" id="Layer_1" xmlns="http://www.w3.org/2000/svg" xmlns:xlink="http://www.w3.org/1999/xlink" x="0px" y="0px"
	 viewBox="0 0 512 512" style="enable-background:new 0 0 512 512;" xml:space="preserve">
<style type="text/css">
	.st0{fill:#DF0000;}
</style>
<g transform="translate(0.000000,512.000000) scale(0.100000,-0.100000)">
	<path class="st0" d="M2360,5109c-105-12-257-45-364-80c-111-36-309-131-408-194c-425-275-720-717-811-1218l-22-122V1815V135l24-38
		c13-21,42-50,64-65C877,9,895,5,950,5s73,4,107,27c22,15,51,44,64,65l24,38l3,812l2,813l1043,2l1043,3l41,27c62,41,88,90,88,168
		s-26,127-88,168l-41,27l-1043,3l-1043,2v613c0,359,4,648,10,697c74,608,520,1092,1123,1222c146,31,408,31,554,0
		c517-111,925-485,1073-982c57-192,53-72,59-1895l6-1680l24-38c13-21,42-50,64-65c34-23,52-27,107-27s73,4,107,27c22,15,51,44,64,65
		l24,38l3,1615c2,1122,0,1649-8,1725c-63,631-436,1175-997,1454C3053,5083,2697,5147,2360,5109z"/>
</g>
</svg>
