<?xml version="1.0" encoding="utf-8"?>
<!-- Generator: Adobe Illustrator 24.1.2, SVG Export Plug-In . SVG Version: 6.00 Build 0)  -->
<svg version="1.1" id="Layer_1" xmlns="http://www.w3.org/2000/svg" xmlns:xlink="http://www.w3.org/1999/xlink" x="0px" y="0px"
	 viewBox="0 0 512 512" style="enable-background:new 0 0 512 512;" xml:space="preserve">
<style type="text/css">
	.st0{fill:#BF5000;}
</style>
<g transform="translate(0.000000,512.000000) scale(0.100000,-0.100000)">
	<path class="st0" d="M345,5106c-84-21-147-57-211-121c-65-65-105-136-123-223c-7-34-11-196-11-447v-395h2560h2560v395
		c0,256-4,413-11,447c-37,172-176,311-347,347C4681,5126,413,5123,345,5106z M1030,4650c45-23,80-80,80-130s-35-107-80-130
		c-33-17-59-20-171-20c-117,0-135,2-171,22c-101,57-102,194-2,254c36,22,50,24,172,24C971,4670,997,4667,1030,4650z M1830,4650
		c45-23,80-80,80-130s-35-107-80-130c-33-17-59-20-171-20c-117,0-135,2-171,22c-101,57-102,194-2,254c36,22,50,24,172,24
		C1771,4670,1797,4667,1830,4650z M2630,4650c45-23,80-80,80-130s-35-107-80-130c-33-17-59-20-171-20c-117,0-135,2-171,22
		c-101,57-102,194-2,254c36,22,50,24,172,24C2571,4670,2597,4667,2630,4650z"/>
	<path class="st0" d="M0,2015C0,857,3,396,11,358C48,186,186,48,358,11c75-16,4328-16,4404,0c170,36,311,178,347,347
		c8,38,11,521,11,1657v1605H2560H0V2015z M1040,2379c66-31,131-94,162-157c19-39,23-63,23-142c0-84-3-102-26-147l-27-51l38-37
		c21-21,54-65,72-99c31-58,33-66,33-166c0-101-1-108-34-168c-43-78-114-144-189-174c-52-20-77-22-280-26c-195-3-226-2-248,13
		c-54,35-55,41-52,606l3,521l33,30l34,29l201-3C976,2405,987,2404,1040,2379z M1697,2375l23-26v-470v-469h146h146l29-29
		c31-31,39-83,19-122c-23-43-58-49-262-49c-215,0-233,4-260,60c-16,32-18,79-18,538c0,540,1,550,51,586
		C1605,2419,1668,2409,1697,2375z M2801,2396c206-44,381-206,445-412c24-76,26-95,21-197c-6-130-27-204-89-298
		c-161-250-481-346-748-226c-415,186-478,757-112,1027C2458,2394,2632,2432,2801,2396z M4202,2396c80-17,168-58,214-98
		c29-25,34-37,34-73c0-32-6-48-26-69c-38-38-85-38-149-1c-97,56-209,68-318,35c-144-45-255-174-275-320c-28-201,88-383,280-441
		c80-25,175-22,241,6c81,34,151,120,181,223l15,52h-105c-145,0-184,22-184,104c0,22,9,45,24,63l24,28l187,3c209,4,224,0,251-63
		c11-26,11-51,3-121c-41-360-316-571-649-500c-278,60-472,301-472,586c0,194,86,367,240,480C3858,2394,4032,2432,4202,2396z"/>
	<path class="st0" d="M710,2080v-130h110c121,0,152,9,189,56c29,36,29,112,0,148c-37,47-68,56-189,56H710V2080z"/>
	<path class="st0" d="M710,1580v-170h138c112,0,144,4,178,19c59,27,87,72,92,146s-21,119-88,153c-39,20-59,22-182,22H710V1580z"/>
	<path class="st0" d="M2553,2190c-142-47-252-176-271-320c-28-201,88-383,280-441c185-56,383,32,470,209c31,62,33,73,33,172
		c0,95-3,111-29,168c-38,82-132,171-213,202C2741,2212,2633,2216,2553,2190z"/>
</g>
</svg>
