<?xml version="1.0" encoding="utf-8"?>
<!-- Generator: Adobe Illustrator 24.1.2, SVG Export Plug-In . SVG Version: 6.00 Build 0)  -->
<svg version="1.1" id="Layer_1" xmlns="http://www.w3.org/2000/svg" xmlns:xlink="http://www.w3.org/1999/xlink" x="0px" y="0px"
	 viewBox="0 0 512 512" style="enable-background:new 0 0 512 512;" xml:space="preserve">
<style type="text/css">
	.st0{fill:#E6096F;}
</style>
<g transform="translate(0.000000,512.000000) scale(0.100000,-0.100000)">
	<path class="st0" d="M2443,5105c-130-36-94-3-1246-1153C599,3354,96,2845,80,2821c-124-185-99-433,59-592c92-91,209-139,343-139h68
		v-800c0-541,4-816,11-852C599,256,746,91,928,28c66-23,71-23,554-23c476,0,487,0,514,21c15,11,37,33,48,48c21,27,21,40,26,695
		l5,668l30,49c38,61,115,110,189,119c28,4,168,5,311,3l260-3l53-29c50-28,82-61,113-116c11-21,15-144,19-692c5-654,5-667,26-694
		c11-15,33-37,48-48c27-21,38-21,514-21c483,0,488,0,554,23c182,63,329,228,367,410c7,36,11,311,11,852v800h68
		c240,0,434,163,474,398c15,92,0,190-43,282c-29,60-116,150-1118,1153c-597,598-1107,1101-1133,1118s-71,40-100,51
		C2648,5119,2514,5125,2443,5105z"/>
</g>
</svg>
