<?xml version="1.0" encoding="utf-8"?>
<!-- Generator: Adobe Illustrator 24.1.2, SVG Export Plug-In . SVG Version: 6.00 Build 0)  -->
<svg version="1.1" id="Layer_1" xmlns="http://www.w3.org/2000/svg" xmlns:xlink="http://www.w3.org/1999/xlink" x="0px" y="0px"
	 viewBox="0 0 512 512" style="enable-background:new 0 0 512 512;" xml:space="preserve">
<style type="text/css">
	.st0{fill:#0C8B37;}
</style>
<g transform="translate(0.000000,512.000000) scale(0.100000,-0.100000)">
	<path class="st0" d="M2315,4153c-40-21-74-52-90-83c-7-14-90-455-184-980c-95-525-174-962-178-970c-3-8-38,145-79,340
		s-81,374-89,397c-33,86-128,136-215,114c-25-7-58-22-74-35c-17-13-106-150-216-337l-187-314l-429-5c-422-5-430-5-471-28
		c-65-34-98-91-98-167c0-78,33-132,97-164c43-21,55-21,548-21h503l41,24c50,29,61,44,161,219c44,76,81,134,82,130s59-280,128-613
		c70-333,134-618,143-634c40-69,178-97,261-54c25,13,54,35,65,51c16,21,56,221,187,940c92,501,169,905,172,897s73-410,156-893
		c136-800,152-882,175-916c68-98,206-109,290-24c22,22,72,137,196,449l166,419l809,5c785,5,811,6,843,25c80,48,112,152,74,237
		c-24,56-73,94-138,108c-33,7-329,10-904,8c-852-3-855-3-895-24c-22-12-49-31-59-43c-10-11-49-96-86-188c-58-142-69-162-74-137
		c-3,16-84,493-181,1059c-96,567-180,1050-186,1075c-21,90-96,150-189,149C2365,4169,2332,4162,2315,4153z"/>
</g>
</svg>
